# xmcd CD database file
#
# Track frame offsets:
#	150
#	23604
#	36530
#	50863
#	62493
#	76593
#	93148
#	108041
#	124257
#	141382
#	154436
#	166173
#	185617
#	201259
#	214393
#	226167
#	241554
#
# Disc length: 3433 seconds
#
# Revision: 0
# Processed by: cddbd v1.5.2PL0 Copyright (c) Steve Scherf et al.
# Submitted via: CDex 1.70beta2
#
DISCID=e20d6711
DTITLE=Payne, Roy - Cdn. - NF - A Man Called Absalon
DYEAR=1900
DGENRE=Country
TTITLE0=Living In the Maritimes
TTITLE1=Spot On the Wall
TTITLE2=Annie
TTITLE3=Forth of July
TTITLE4=Things That Waylon Said
TTITLE5=When the Eagle Screams
TTITLE6=Am I Worried
TTITLE7=Absalom
TTITLE8=Ole Hank
TTITLE9=Look What Piced Me Up
TTITLE10=Medals of Gold
TTITLE11=Lyle Boy
TTITLE12=It's Cold Tonight
TTITLE13=Silver Fox Island
TTITLE14=Lover's Come
TTITLE15=Kiss My Trought River Ass
TTITLE16=Bonus Track - ???
EXTD=
EXTT0=
EXTT1=
EXTT2=
EXTT3=
EXTT4=
EXTT5=
EXTT6=
EXTT7=
EXTT8=
EXTT9=
EXTT10=
EXTT11=
EXTT12=
EXTT13=
EXTT14=
EXTT15=
EXTT16=
PLAYORDER=
